HIERARCHY
ROOT Hips
{
	OFFSET 0.000000 0.000000 0.000000 
	CHANNELS 6 Xposition Yposition Zposition Zrotation Yrotation Xrotation
	JOINT LeftUpLeg
	{
		OFFSET 1.363060 -1.794630 0.839290 
		CHANNELS 3 Zrotation Yrotation Xrotation
		JOINT LeftLeg
		{
			OFFSET 2.448110 -6.726130 0.000000 
			CHANNELS 3 Zrotation Yrotation Xrotation
			JOINT LeftFoot
			{
				OFFSET 2.562200 -7.039590 0.000000 
				CHANNELS 3 Zrotation Yrotation Xrotation
				JOINT LeftToeBase
				{
					OFFSET 0.157640 -0.433110 2.322550 
					CHANNELS 3 Zrotation Yrotation Xrotation
					End Site
					{
						OFFSET 0.000000 0.000000 0.000000 
					}
				}
			}
		}
	}
	JOINT RightUpLeg
	{
		OFFSET -1.305520 -1.794630 0.839290 
		CHANNELS 3 Zrotation Yrotation Xrotation
		JOINT RightLeg
		{
			OFFSET -2.542530 -6.985550 0.000000 
			CHANNELS 3 Zrotation Yrotation Xrotation
			JOINT RightFoot
			{
				OFFSET -2.568260 -7.056230 0.000000 
				CHANNELS 3 Zrotation Yrotation Xrotation
				JOINT RightToeBase
				{
					OFFSET -0.164730 -0.452590 2.363150 
					CHANNELS 3 Zrotation Yrotation Xrotation
					End Site
					{
						OFFSET 0.000000 0.000000 0.000000 
					}
				}
			}
		}
	}
	JOINT Spine
	{
		OFFSET 0.028270 2.035590 -0.193380 
		CHANNELS 3 Zrotation Yrotation Xrotation
		JOINT Spine1
		{
			OFFSET 0.056720 2.048850 -0.042750 
			CHANNELS 3 Zrotation Yrotation Xrotation
			JOINT Neck1
			{
				OFFSET -0.054170 1.746240 0.172020 
				CHANNELS 3 Zrotation Yrotation Xrotation
				JOINT Head
				{
					OFFSET 0.104070 1.761360 -0.123970 
					CHANNELS 3 Zrotation Yrotation Xrotation
					End Site
					{
						OFFSET 0.000000 0.000000 0.000000 
					}
				}
			}
			JOINT LeftArm
			{
				OFFSET 3.362410 1.200890 -0.311210 
				CHANNELS 3 Zrotation Yrotation Xrotation
				JOINT LeftForeArm
				{
					OFFSET 4.983000 -0.000000 -0.000000 
					CHANNELS 3 Zrotation Yrotation Xrotation
					JOINT LeftHand
					{
						OFFSET 3.483560 -0.000000 -0.000000 
						CHANNELS 3 Zrotation Yrotation Xrotation
						JOINT LeftHandIndex1
						{
							OFFSET 0.715260 -0.000000 -0.000000 
							CHANNELS 3 Zrotation Yrotation Xrotation
							End Site
							{
								OFFSET 0.000000 0.000000 0.000000 
							}
						}
					}
				}
			}
			JOINT RightArm
			{
				OFFSET -3.136600 1.374050 -0.404650 
				CHANNELS 3 Zrotation Yrotation Xrotation
				JOINT RightForeArm
				{
					OFFSET -5.241900 -0.000000 -0.000000 
					CHANNELS 3 Zrotation Yrotation Xrotation
					JOINT RightHand
					{
						OFFSET -3.444170 -0.000000 -0.000000 
						CHANNELS 3 Zrotation Yrotation Xrotation
						JOINT RightHandIndex1
						{
							OFFSET -0.622530 -0.000000 -0.000000 
							CHANNELS 3 Zrotation Yrotation Xrotation
							End Site
							{
								OFFSET 0.000000 0.000000 0.000000 
							}
						}
					}
				}
			}
		}
	}
}
MOTION
Frames: 15
Frame Time: 0.041667
9.884494 23.479167 1.932676 168.834713 1.868324 -170.203061 -26.204274 26.172502 15.653554 -9.541164 -24.951424 24.552537 23.887574 30.210722 59.825816 2.455100 -9.755800 -28.189400 -15.458791 -30.476753 -6.398354 5.282910 23.046590 55.410629 -16.031766 -39.022685 38.112592 -1.760800 8.349000 -23.779300 -1.254283 4.214452 30.781131 -2.287993 2.067475 -1.916476 5.484587 -5.510113 2.318354 3.030100 -2.506200 -1.451200 -51.739332 -22.918038 55.524800 45.849485 -38.582995 -41.075322 -19.307510 -15.642855 21.210229 -7.125000 0.000000 0.000000 50.489350 27.188018 58.078407 -44.870213 36.777486 -39.935614 14.409681 -3.211100 -9.724835 7.125000 0.000000 0.000000 
9.900731 23.488486 1.939877 168.948305 2.230100 -169.643043 -26.607940 25.465793 13.997580 -10.228066 -24.908075 29.694164 23.849998 29.465197 58.146678 2.378800 -9.614200 -27.736200 -16.142730 -29.308855 -7.544168 4.567631 23.777534 55.773421 -16.847455 -38.463470 37.556344 -1.570000 7.906300 -22.429900 -1.810800 3.204672 30.963015 -2.169569 1.927991 -1.995888 5.524609 -5.487566 2.372690 3.092200 -2.480400 -1.457000 -50.849707 -23.011948 55.422407 45.226202 -38.075063 -40.773444 -19.492601 -15.967725 20.907921 -7.125000 0.000000 0.000000 50.125505 27.328009 58.507148 -44.453629 36.505388 -39.407742 14.355811 -2.782538 -10.315259 7.125000 0.000000 0.000000 
9.904967 23.534516 1.925758 169.362084 2.479769 -168.960732 -25.974872 24.482526 12.666588 -10.489734 -24.064083 33.633014 23.724579 28.214944 56.257818 1.854900 -8.557000 -24.419100 -16.617822 -27.598514 -8.766007 3.061660 25.028212 56.248893 -17.468707 -38.226792 36.825016 -1.501300 7.739300 -21.925000 -1.962891 3.029312 30.952290 -2.285957 2.063368 -1.983733 5.510374 -5.509409 2.435777 3.095900 -2.484100 -1.435900 -50.712136 -23.161931 55.612758 44.670981 -37.717894 -40.219765 -19.582883 -16.491202 20.594574 -7.125000 0.000000 0.000000 50.083958 27.481081 58.875310 -43.887490 36.153680 -38.644201 14.388094 -2.377857 -10.811972 7.125000 0.000000 0.000000 
9.904826 23.552448 1.912627 169.415672 0.992863 -169.371033 -25.805251 24.701125 15.238109 -9.269532 -23.782474 28.552848 23.706502 28.888771 58.236808 1.778100 -8.387700 -23.898000 -14.895388 -26.794439 -8.876442 0.517153 25.896626 55.886863 -16.500676 -37.863594 35.383901 -1.511100 7.763200 -21.997300 -1.339327 3.912109 30.834052 -2.598317 1.988106 -1.789583 5.425084 -5.497936 2.517664 3.076400 -2.473700 -1.394100 -51.022189 -23.269819 55.917907 44.376973 -37.745356 -39.577123 -19.432466 -16.887878 20.053308 -7.125000 0.000000 0.000000 50.214689 27.727195 59.100790 -43.433934 35.830534 -38.034857 14.949673 -2.324310 -11.450090 7.125000 0.000000 0.000000 
9.910050 23.599607 1.894836 170.398011 0.984778 -169.609151 -24.553211 24.157781 16.012704 -8.400658 -22.594188 28.652011 23.334134 27.960267 57.617235 1.261100 -7.118600 -20.067200 -12.720168 -26.378374 -8.324070 -1.471651 25.675684 55.066396 -14.997322 -36.753387 33.949074 -1.429900 7.561000 -21.388400 -1.377239 4.799638 30.893860 -2.637005 2.150747 -1.681698 5.442381 -5.526320 2.595238 3.101000 -2.475400 -1.341000 -51.008696 -23.332632 56.101761 43.923291 -37.557993 -38.981845 -19.416770 -17.011838 19.725533 -7.125000 0.000000 0.000000 50.058612 27.963700 59.140329 -43.009147 35.520905 -37.534557 15.127905 -2.308204 -11.657683 7.125000 0.000000 0.000000 
9.918804 23.606384 1.894554 170.405327 0.058569 -170.241488 -23.723730 24.891904 18.603079 -7.424750 -21.499740 22.824133 23.527035 29.003574 59.233721 1.604800 -7.989200 -22.681100 -10.739815 -26.970032 -6.272726 -1.734894 24.453402 54.018387 -13.257964 -36.628207 33.717618 -1.392900 7.466800 -21.105800 -0.529670 6.191785 30.712752 -2.800229 2.399156 -1.326118 5.372416 -5.584647 2.593033 3.146100 -2.495900 -1.347700 -51.469799 -23.429925 56.292516 43.816231 -37.734146 -38.427097 -19.362326 -16.970756 19.378659 -7.125000 0.000000 0.000000 50.557612 28.372402 59.221497 -42.701009 35.139508 -36.797097 14.856939 -2.301641 -11.512243 7.125000 0.000000 0.000000 
9.930241 23.636176 1.888765 170.694883 -0.218763 -170.381301 -22.709833 24.944065 19.477721 -7.503217 -20.871604 22.083915 23.577394 28.929063 59.262736 1.330600 -7.304600 -20.621000 -9.896953 -26.463359 -5.640345 -2.508897 24.316876 53.721225 -12.663898 -36.477596 33.379549 -1.350100 7.355900 -20.774100 -0.049477 7.052458 30.591945 -2.740047 2.705502 -1.241444 5.317576 -5.664873 2.545347 3.173700 -2.531500 -1.406100 -51.546992 -23.521510 56.406914 43.294845 -37.560751 -37.628510 -19.434393 -16.754392 19.071644 -7.125000 0.000000 0.000000 50.743042 28.534889 59.508729 -42.333996 34.847256 -36.178792 14.859552 -2.231241 -11.690845 7.125000 0.000000 0.000000 
9.937160 23.635894 1.893848 171.078386 -0.527129 -170.511911 -21.969400 24.456783 20.577327 -7.652324 -20.233086 21.500590 23.618955 29.281650 59.171859 1.483100 -7.694300 -21.789500 -8.988344 -26.135795 -6.123277 -3.925091 23.891320 53.338534 -12.194506 -35.333301 32.867530 -1.270700 7.144800 -20.145000 0.033255 7.334813 30.596537 -2.558800 2.704895 -1.491415 5.343520 -5.729346 2.562479 3.284900 -2.536900 -1.372000 -51.344678 -23.413902 56.420557 42.457521 -37.169243 -36.761258 -19.611299 -16.242662 19.276062 -7.125000 0.000000 0.000000 50.714794 28.393642 59.915216 -41.931749 34.621029 -35.688453 15.140733 -2.075684 -11.887225 7.125000 0.000000 0.000000 
9.938430 23.673028 1.882976 172.090677 0.149496 -171.235005 -21.200116 24.350621 21.047216 -6.964849 -19.627645 22.173729 23.200796 28.770142 58.566225 1.237000 -7.052900 -19.872300 -6.672295 -26.883506 -4.280049 -4.377962 22.255233 51.996935 -10.667027 -34.303040 33.096712 -1.244100 7.072300 -19.929600 -0.483620 8.209884 30.733458 -2.188060 2.642998 -1.692492 5.401640 -5.761180 2.624749 3.372800 -2.529000 -1.271100 -51.232112 -23.328993 56.476878 41.762032 -36.805073 -36.072087 -19.797177 -15.861735 19.601706 -7.125000 0.000000 0.000000 50.477634 28.413129 60.218881 -41.293791 34.223135 -35.002499 15.408757 -2.033835 -12.192387 7.125000 0.000000 0.000000 
9.937301 23.662721 1.880434 172.749659 0.630027 -171.848795 -20.441241 24.431514 21.461703 -6.851781 -18.711254 22.289192 22.856583 28.552200 58.176987 1.304700 -7.236000 -20.416400 -4.715933 -27.834173 -2.041759 -4.106053 20.858644 50.628689 -9.465549 -34.127250 33.887071 -1.256700 7.106700 -20.031800 -0.665961 8.906671 30.776327 -2.084911 2.879644 -1.650196 5.354096 -5.796373 2.635414 3.291600 -2.557000 -1.286600 -51.386252 -23.289473 56.658193 41.166301 -36.557107 -35.407349 -19.932588 -15.864342 19.480174 -7.125000 0.000000 0.000000 50.413306 28.682847 60.340386 -40.576892 33.714781 -34.169115 15.589914 -2.006820 -12.545126 7.125000 0.000000 0.000000 
9.935042 23.701832 1.862079 172.817210 0.575338 -171.684791 -20.638655 24.378299 21.268646 -6.268558 -18.602360 22.768010 22.749728 28.108808 57.922702 1.048200 -6.510500 -18.272900 -4.609724 -27.036556 -2.844678 -5.458879 20.874711 50.752338 -9.445656 -33.133902 33.341050 -1.267200 7.135200 -20.116500 -0.810809 9.010119 30.756761 -2.062354 2.710382 -1.613401 5.338093 -5.884638 2.642599 3.295100 -2.598200 -1.350100 -51.359280 -23.428766 56.776467 40.596590 -36.262503 -34.782413 -20.071649 -16.193269 19.042737 -7.125000 0.000000 0.000000 50.328132 28.888252 60.471889 -40.170876 33.413743 -33.615134 15.519624 -1.740791 -12.544465 7.125000 0.000000 0.000000 
9.932359 23.688136 1.857561 172.811044 0.701564 -171.977883 -21.102684 24.107218 21.795033 -5.934910 -17.653141 22.233614 22.566253 28.570335 57.697810 1.691800 -8.192300 -23.299700 -3.568198 -27.850794 -2.362770 -5.962110 19.823154 49.864653 -8.762293 -32.401308 33.774691 -1.301300 7.226800 -20.389000 -1.372297 8.726074 30.905374 -1.905864 2.457625 -1.492022 5.401977 -5.952338 2.727171 3.408700 -2.608100 -1.296100 -50.952047 -23.659715 56.762444 39.930934 -35.807398 -34.224940 -20.302730 -16.559077 18.832784 -7.125000 0.000000 0.000000 50.093222 29.061045 60.683650 -39.774174 33.132557 -33.121559 15.288497 -1.626631 -12.283616 7.125000 0.000000 0.000000 
9.930947 23.719905 1.832993 174.329640 1.958341 -172.675852 -19.255786 23.811557 21.923446 -5.927878 -17.261728 24.312262 22.120120 27.673432 56.807245 1.220000 -7.006000 -19.733200 -0.932713 -28.798916 0.784664 -5.653786 18.050866 47.681922 -7.704496 -32.194982 35.547213 -1.312900 7.257900 -20.481600 -1.907137 9.680142 31.005093 -1.610916 2.875836 -1.346595 5.408011 -5.911514 2.804288 3.342600 -2.596200 -1.232500 -50.748999 -23.649540 56.868474 39.327364 -35.469375 -33.616440 -20.505735 -16.619214 18.775064 -7.125000 0.000000 0.000000 50.201413 29.205738 60.913437 -39.108693 32.739574 -32.366028 15.211016 -2.040928 -11.933924 7.125000 0.000000 0.000000 
9.932500 23.688418 1.830734 175.090858 3.325439 -173.625717 -18.769539 24.370789 21.745413 -6.466398 -15.665009 25.546337 21.329278 28.603032 56.163043 2.224400 -9.318600 -26.797000 1.464418 -30.261554 4.471202 -4.847004 16.892554 44.521033 -7.304181 -32.837344 38.279492 -1.344500 7.341200 -20.730400 -2.528837 10.702356 31.032374 -1.333089 3.177853 -1.287142 5.387611 -5.808407 2.851026 3.256700 -2.557900 -1.193400 -50.700275 -23.526831 57.135114 38.784066 -35.212417 -33.070565 -20.550083 -16.522730 18.574685 -7.125000 0.000000 0.000000 50.374169 29.243794 61.066953 -38.487454 32.397135 -31.740385 15.315962 -2.419881 -11.587479 7.125000 0.000000 0.000000 
9.931935 23.688701 1.821415 175.989620 4.265288 -174.056645 -17.807431 24.655183 21.172873 -6.623354 -15.346321 27.471212 20.896067 28.562581 55.626607 2.091200 -9.053600 -25.963100 2.891204 -30.623038 6.847505 -4.382528 16.484924 42.286708 -7.198802 -33.860885 39.987359 -1.481000 7.689000 -21.773400 -2.823656 11.576332 30.996688 -1.132783 3.414031 -1.221631 5.387133 -5.743750 2.902691 3.292200 -2.518200 -1.173500 -50.732405 -23.558549 57.336571 38.039696 -34.859930 -32.283494 -20.592836 -16.515404 18.310233 -7.125000 0.000000 0.000000 50.454584 29.290459 61.152156 -38.279963 32.272131 -31.535662 15.332402 -2.388534 -11.436081 7.125000 0.000000 0.000000 
